# xmcd
#
# Track frame offsets: 
#        225
#        15639
#        31763
#        41153
#        54533
#        65415
#        76251
#        93549
#        108646
#        119995
#
# Disc length: 1737 seconds
#
# Revision: 0
# Processed by: cddbd v1.5.2PL0 Copyright (c) Steve Scherf et al.
# Submitted via: ExactAudioCopy v0.95b3
#
DISCID=8706c60a
DTITLE=Forgotten Mountain Boys - Little Things in Life
DYEAR=2009
DGENRE=Bluegrass
TTITLE0=Little Things in Life
TTITLE1=Whiskey Bottle
TTITLE2=Bluegrass Horizons
TTITLE3=By George
TTITLE4=Cut the Cornbread Mama
TTITLE5=Cut the Cornbread Mama
TTITLE6=I Can Still Fly
TTITLE7=Don't Tell Mary
TTITLE8=Long Journey Home
TTITLE9=Thanks a Lot
EXTD=
EXTT0=
EXTT1=
EXTT2=
EXTT3=
EXTT4=
EXTT5=
EXTT6=
EXTT7=
EXTT8=
EXTT9=
PLAYORDER=
